<svg id="visual" viewBox="0 0 900 600" width="900" height="600" xmlns="http://www.w3.org/2000/svg" xmlns:xlink="http://www.w3.org/1999/xlink" version="1.1"><rect x="0" y="0" width="900" height="600" fill="#85586F"></rect><path d="M0 445L13.7 436.5C27.3 428 54.7 411 82 388C109.3 365 136.7 336 163.8 356.2C191 376.3 218 445.7 245.2 447C272.3 448.3 299.7 381.7 327 330.2C354.3 278.7 381.7 242.3 409 276.3C436.3 310.3 463.7 414.7 491 435C518.3 455.3 545.7 391.7 573 339C600.3 286.3 627.7 244.7 654.8 240.2C682 235.7 709 268.3 736.2 300.5C763.3 332.7 790.7 364.3 818 345.8C845.3 327.3 872.7 258.7 886.3 224.3L900 190L900 601L886.3 601C872.7 601 845.3 601 818 601C790.7 601 763.3 601 736.2 601C709 601 682 601 654.8 601C627.7 601 600.3 601 573 601C545.7 601 518.3 601 491 601C463.7 601 436.3 601 409 601C381.7 601 354.3 601 327 601C299.7 601 272.3 601 245.2 601C218 601 191 601 163.8 601C136.7 601 109.3 601 82 601C54.7 601 27.3 601 13.7 601L0 601Z" fill="#AC7D88" stroke-linecap="round" stroke-linejoin="miter"></path></svg>