<svg id="visual" viewBox="0 0 900 450" width="700" height="350" xmlns="http://www.w3.org/2000/svg" xmlns:xlink="http://www.w3.org/1999/xlink" version="1.1"><rect x="0" y="0" width="900" height="450" fill="#85586F"></rect><path d="M0 334L13.7 327.5C27.3 321 54.7 308 82 290.7C109.3 273.3 136.7 251.7 163.8 266.8C191 282 218 334 245.2 335C272.3 336 299.7 286 327 247.5C354.3 209 381.7 182 409 207.5C436.3 233 463.7 311 491 326.2C518.3 341.3 545.7 293.7 573 254.2C600.3 214.7 627.7 183.3 654.8 180C682 176.7 709 201.3 736.2 225.5C763.3 249.7 790.7 273.3 818 259.5C845.3 245.7 872.7 194.3 886.3 168.7L900 143L900 451L886.3 451C872.7 451 845.3 451 818 451C790.7 451 763.3 451 736.2 451C709 451 682 451 654.8 451C627.7 451 600.3 451 573 451C545.7 451 518.3 451 491 451C463.7 451 436.3 451 409 451C381.7 451 354.3 451 327 451C299.7 451 272.3 451 245.2 451C218 451 191 451 163.8 451C136.7 451 109.3 451 82 451C54.7 451 27.3 451 13.7 451L0 451Z" fill="#AC7D88" stroke-linecap="round" stroke-linejoin="miter"></path></svg>